# xmcd
#
# Track frame offsets:
#	150
#	14902
#	29869
#	43729
#	57709
#	73549
#	86177
#	101192
#	118889
#	128479
#	142784
#	161162
#
# Disc length: 2324 seconds
#
# Revision: 2
# Processed by: cddbd v1.5.2PL0 Copyright (c) Steve Scherf et al.
# Submitted via: EasyCDDAExtractor 16.0.8.1
#
DISCID=ba09120c
DTITLE=Mavis Staples - Livin' On A High Note
DYEAR=2015
DGENRE=Soul
TTITLE0=Take Us Back
TTITLE1=Love And Trust
TTITLE2=If It's A Light
TTITLE3=Action
TTITLE4=High Note
TTITLE5=Don't Cry
TTITLE6=Tomorrow
TTITLE7=Dedicated
TTITLE8=History, Now
TTITLE9=One Love
TTITLE10=Jesus Lay Down Beside Me
TTITLE11=MLK Song
EXTD=
EXTT0=
EXTT1=
EXTT2=
EXTT3=
EXTT4=
EXTT5=
EXTT6=
EXTT7=
EXTT8=
EXTT9=
EXTT10=
EXTT11=
PLAYORDER=
